<svg width="16" height="20" viewBox="0 0 16 20" fill="none" xmlns="http://www.w3.org/2000/svg">
<path d="M8 0C3.5808 0 0 2.78799 0 6.2414C0 12.2126 8 20 8 20C8 20 16 12.2114 16 6.2414C16 2.78924 12.4192 0 8 0ZM8 9.69481C6.85426 9.69481 5.75546 9.33901 4.9453 8.70568C4.13514 8.07235 3.68 7.21336 3.68 6.3177C3.68 5.42203 4.13514 4.56305 4.9453 3.92972C5.75546 3.29639 6.85426 2.94059 8 2.94059C9.14574 2.94059 10.2445 3.29639 11.0547 3.92972C11.8649 4.56305 12.32 5.42203 12.32 6.3177C12.32 7.21336 11.8649 8.07235 11.0547 8.70568C10.2445 9.33901 9.14574 9.69481 8 9.69481Z" fill="black" fill-opacity="0.8"/>
</svg>
