<svg width="126" height="100" viewBox="0 0 126 100" fill="none" xmlns="http://www.w3.org/2000/svg">
<path d="M114.931 85.675C126.725 72.875 125.537 56.4375 125.5 56.25V6.25C125.5 4.5924 124.841 3.00269 123.669 1.83058C122.497 0.658481 120.907 0 119.25 0H81.7498C74.8561 0 69.2498 5.60625 69.2498 12.5V56.25C69.2498 57.9076 69.9083 59.4973 71.0804 60.6694C72.2525 61.8415 73.8422 62.5 75.4998 62.5H94.7373C94.6053 65.5899 93.682 68.5942 92.0561 71.225C88.8811 76.2312 82.8998 79.65 74.2686 81.375L69.2498 82.375V100H75.4998C92.8936 100 106.162 95.1813 114.931 85.675ZM46.1373 85.675C57.9373 72.875 56.7436 56.4375 56.7061 56.25V6.25C56.7061 4.5924 56.0476 3.00269 54.8755 1.83058C53.7034 0.658481 52.1137 0 50.4561 0H12.9561C6.0623 0 0.456055 5.60625 0.456055 12.5V56.25C0.456055 57.9076 1.11453 59.4973 2.28664 60.6694C3.45874 61.8415 5.04845 62.5 6.70605 62.5H25.9436C25.8115 65.5899 24.8883 68.5942 23.2623 71.225C20.0873 76.2312 14.1061 79.65 5.4748 81.375L0.456055 82.375V100H6.70605C24.0998 100 37.3686 95.1813 46.1373 85.675V85.675Z" fill="#0D2C58"/>
</svg>
