<svg width="126" height="100" viewBox="0 0 126 100" fill="none" xmlns="http://www.w3.org/2000/svg">
<path d="M11.069 14.325C19.8377 4.81875 33.1065 0 50.5002 0H56.7502V17.6187L51.7252 18.625C43.1627 20.3375 37.2065 23.7062 34.019 28.65C32.3558 31.3133 31.4126 34.3628 31.2815 37.5H50.5002C52.1578 37.5 53.7475 38.1585 54.9197 39.3306C56.0918 40.5027 56.7502 42.0924 56.7502 43.75V87.5C56.7502 94.3938 51.144 100 44.2502 100H6.75024C5.09263 100 3.50292 99.3415 2.33082 98.1694C1.15872 96.9973 0.500236 95.4076 0.500236 93.75V62.5L0.518987 44.2563C0.462737 43.5625 -0.724764 27.125 11.069 14.325ZM113 100H75.5002C73.8426 100 72.2529 99.3415 71.0808 98.1694C69.9087 96.9973 69.2502 95.4076 69.2502 93.75V62.5L69.269 44.2563C69.2127 43.5625 68.0252 27.125 79.819 14.325C88.5877 4.81875 101.856 0 119.25 0H125.5V17.6187L120.475 18.625C111.913 20.3375 105.956 23.7062 102.769 28.65C101.106 31.3133 100.163 34.3628 100.031 37.5H119.25C120.908 37.5 122.498 38.1585 123.67 39.3306C124.842 40.5027 125.5 42.0924 125.5 43.75V87.5C125.5 94.3938 119.894 100 113 100Z" fill="#0D2C58"/>
</svg>
