<svg width="30" height="24" viewBox="0 0 30 24" fill="none" xmlns="http://www.w3.org/2000/svg">
<path d="M16.5844 2.53753L15.4781 0.297072C15.2953 -0.091962 14.7234 -0.106023 14.5219 0.297072L13.4156 2.53753L10.9641 2.88907C10.5281 2.95469 10.3406 3.49371 10.6641 3.81712L12.4453 5.55137L12.0234 7.99338C11.9578 8.42928 12.4078 8.76676 12.8109 8.56521L15.0094 7.40279L17.1937 8.54646C17.5969 8.74801 18.0516 8.41053 17.9813 7.97463L17.5594 5.53262L19.3406 3.81712C19.6594 3.4984 19.4766 2.95937 19.0406 2.88907L16.5891 2.53753H16.5844ZM12 12.0009C11.1703 12.0009 10.5 12.6712 10.5 13.5008V22.5001C10.5 23.3297 11.1703 24 12 24H18C18.8297 24 19.5 23.3297 19.5 22.5001V13.5008C19.5 12.6712 18.8297 12.0009 18 12.0009H12ZM1.5 15.0007C0.670312 15.0007 0 15.6709 0 16.5006V22.5001C0 23.3297 0.670312 24 1.5 24H7.5C8.32969 24 9 23.3297 9 22.5001V16.5006C9 15.6709 8.32969 15.0007 7.5 15.0007H1.5ZM21 19.5003V22.5001C21 23.3297 21.6703 24 22.5 24H28.5C29.3297 24 30 23.3297 30 22.5001V19.5003C30 18.6707 29.3297 18.0004 28.5 18.0004H22.5C21.6703 18.0004 21 18.6707 21 19.5003Z" fill="black" fill-opacity="0.8"/>
</svg>
